<svg id="svg" version="1.1" xmlns="http://www.w3.org/2000/svg" xmlns:xlink="http://www.w3.org/1999/xlink" width="400" height="400" viewBox="0, 0, 400,400"><g id="svgg"><path id="path0" d="M199.900 119.907 C 199.295 120.280,198.800 120.724,198.800 120.893 C 198.800 121.062,198.575 121.201,198.300 121.202 C 198.025 121.203,197.225 121.743,196.522 122.402 C 195.819 123.061,195.099 123.601,194.922 123.602 C 194.745 123.603,194.060 124.102,193.400 124.710 C 192.387 125.644,189.622 127.755,182.629 132.933 C 180.674 134.380,179.008 135.783,178.867 136.100 C 178.793 136.265,178.523 136.401,178.267 136.402 C 178.010 136.403,177.225 136.943,176.522 137.602 C 175.819 138.261,175.080 138.800,174.881 138.800 C 174.682 138.800,173.954 139.340,173.263 140.000 C 172.572 140.660,171.860 141.200,171.679 141.200 C 171.499 141.200,171.002 141.520,170.575 141.911 C 170.149 142.302,169.170 143.058,168.400 143.592 C 167.630 144.125,166.910 144.669,166.800 144.800 C 166.690 144.931,165.970 145.471,165.200 146.000 C 164.430 146.529,163.710 147.069,163.600 147.200 C 163.490 147.331,162.770 147.871,162.000 148.400 C 161.230 148.929,160.510 149.469,160.400 149.600 C 160.290 149.731,159.570 150.271,158.800 150.800 C 158.030 151.329,157.109 152.086,156.753 152.481 C 156.397 152.876,155.929 153.200,155.712 153.200 C 155.496 153.200,154.797 153.697,154.159 154.304 C 153.522 154.912,152.370 155.854,151.600 156.399 C 150.830 156.943,149.930 157.605,149.600 157.869 C 148.059 159.102,141.992 163.566,140.200 164.786 C 139.100 165.535,138.110 166.258,138.000 166.393 C 137.890 166.528,137.170 167.071,136.400 167.600 C 135.630 168.129,134.910 168.669,134.800 168.800 C 134.690 168.931,133.970 169.471,133.200 170.000 C 132.430 170.529,131.710 171.069,131.600 171.200 C 131.490 171.331,130.770 171.871,130.000 172.400 C 129.230 172.929,128.510 173.469,128.400 173.600 C 128.290 173.731,127.570 174.271,126.800 174.800 C 126.030 175.329,125.310 175.866,125.200 175.995 C 125.090 176.123,122.895 177.800,120.321 179.721 C 117.748 181.642,115.376 183.481,115.050 183.807 C 114.724 184.133,114.309 184.401,114.129 184.402 C 113.948 184.403,113.225 184.943,112.522 185.602 C 111.819 186.261,111.099 186.801,110.922 186.802 C 110.745 186.803,110.025 187.343,109.322 188.002 C 108.619 188.661,107.882 189.200,107.684 189.200 C 106.052 189.200,105.987 189.951,106.096 207.436 L 106.200 224.200 107.300 224.327 C 107.905 224.396,108.400 224.304,108.400 224.121 C 108.400 223.938,109.120 223.344,110.000 222.800 C 110.880 222.256,111.600 221.674,111.600 221.506 C 111.600 221.338,111.778 221.200,111.995 221.200 C 112.351 221.200,113.256 220.556,114.545 219.387 C 114.795 219.160,115.630 218.534,116.400 217.998 C 117.170 217.461,118.149 216.702,118.575 216.311 C 119.002 215.920,119.515 215.600,119.715 215.600 C 119.915 215.600,120.583 215.060,121.200 214.400 C 121.817 213.740,122.519 213.200,122.760 213.200 C 123.002 213.200,123.200 213.020,123.200 212.800 C 123.200 212.580,123.393 212.400,123.629 212.400 C 123.864 212.400,124.327 212.130,124.657 211.800 C 124.987 211.470,125.424 211.200,125.629 211.200 C 125.854 211.200,126.000 223.697,126.000 243.000 L 126.000 274.800 119.195 274.800 L 112.390 274.800 112.495 288.700 L 112.600 302.600 133.200 302.600 L 153.800 302.600 153.901 246.420 L 154.003 190.240 155.402 188.920 C 156.172 188.194,156.955 187.600,157.142 187.600 C 157.328 187.600,158.046 187.060,158.737 186.400 C 159.428 185.740,160.148 185.200,160.337 185.200 C 160.526 185.200,161.246 184.660,161.937 184.000 C 162.628 183.340,163.348 182.800,163.537 182.800 C 163.726 182.800,164.446 182.260,165.137 181.600 C 165.828 180.940,166.548 180.400,166.737 180.400 C 166.926 180.400,167.646 179.860,168.337 179.200 C 169.028 178.540,169.729 177.995,169.896 177.989 C 170.063 177.982,171.003 177.262,171.986 176.389 C 172.968 175.515,173.921 174.800,174.104 174.800 C 174.287 174.800,174.886 174.350,175.436 173.800 C 175.986 173.250,176.589 172.800,176.776 172.800 C 176.963 172.800,177.697 172.257,178.407 171.594 C 179.117 170.930,180.216 170.081,180.849 169.707 C 181.482 169.333,182.000 168.886,182.000 168.714 C 182.000 168.541,182.243 168.400,182.541 168.400 C 182.838 168.400,183.646 167.860,184.337 167.200 C 185.028 166.540,185.748 166.000,185.937 166.000 C 186.126 166.000,186.846 165.460,187.537 164.800 C 188.228 164.140,188.929 163.599,189.096 163.598 C 189.263 163.597,189.940 163.096,190.600 162.485 C 191.260 161.874,192.430 160.939,193.200 160.406 C 193.970 159.874,194.690 159.331,194.800 159.200 C 194.910 159.069,195.630 158.529,196.400 158.000 C 197.170 157.471,197.890 156.931,198.000 156.800 C 199.110 155.476,202.000 154.301,202.000 155.173 C 202.000 155.378,202.366 155.662,202.813 155.804 C 203.260 155.946,204.025 156.457,204.513 156.940 C 205.001 157.422,206.030 158.262,206.800 158.804 C 207.570 159.347,208.722 160.288,209.359 160.896 C 209.997 161.503,210.682 162.000,210.881 162.000 C 211.080 162.000,211.819 162.539,212.522 163.198 C 213.225 163.857,213.935 164.397,214.099 164.398 C 214.264 164.399,215.066 165.030,215.882 165.800 C 216.699 166.570,217.489 167.200,217.639 167.200 C 217.789 167.200,218.607 167.826,219.456 168.591 C 220.305 169.356,221.161 169.986,221.357 169.991 C 221.553 169.996,222.229 170.540,222.860 171.200 C 223.491 171.860,224.140 172.400,224.303 172.401 C 224.467 172.401,225.230 172.941,226.000 173.600 C 226.770 174.259,227.559 174.799,227.753 174.799 C 227.947 174.800,228.397 175.124,228.753 175.519 C 229.109 175.914,230.030 176.671,230.800 177.200 C 231.570 177.729,232.470 178.449,232.800 178.800 C 233.130 179.151,234.030 179.871,234.800 180.400 C 235.570 180.929,236.491 181.686,236.847 182.081 C 237.203 182.476,237.675 182.800,237.897 182.800 C 238.119 182.800,239.020 183.477,239.899 184.305 C 240.778 185.132,241.970 186.063,242.548 186.372 C 243.127 186.682,243.600 187.085,243.600 187.268 C 243.600 187.450,243.870 187.600,244.200 187.600 C 244.530 187.600,244.800 187.780,244.800 188.000 C 244.800 188.220,245.069 188.400,245.399 188.400 C 245.927 188.400,246.009 195.114,246.099 245.500 L 246.200 302.600 266.800 302.600 L 287.400 302.600 287.400 288.800 L 287.400 275.000 280.700 274.890 L 274.000 274.781 274.000 242.790 C 274.000 225.196,274.140 210.800,274.312 210.800 C 274.483 210.800,274.883 211.160,275.200 211.600 C 275.517 212.040,276.007 212.400,276.288 212.400 C 276.570 212.400,276.800 212.580,276.800 212.800 C 276.800 213.020,277.070 213.200,277.400 213.200 C 277.730 213.200,278.000 213.350,278.000 213.532 C 278.000 213.715,278.495 214.120,279.100 214.432 C 279.705 214.745,280.861 215.675,281.669 216.500 C 282.476 217.325,283.340 218.000,283.587 218.000 C 283.834 218.000,284.456 218.405,284.968 218.900 C 286.226 220.115,287.565 221.200,287.808 221.200 C 287.917 221.200,288.535 221.670,289.180 222.245 C 290.717 223.615,292.416 224.479,293.074 224.227 C 293.628 224.014,293.893 191.630,293.352 190.219 C 293.215 189.863,291.730 188.547,290.052 187.293 C 288.373 186.039,286.759 184.782,286.465 184.501 C 286.171 184.219,285.271 183.497,284.465 182.896 C 283.659 182.296,282.910 181.705,282.800 181.583 C 282.690 181.461,281.970 180.929,281.200 180.400 C 280.430 179.871,279.530 179.147,279.200 178.791 C 278.870 178.435,277.520 177.409,276.200 176.512 C 274.880 175.614,273.440 174.542,273.000 174.129 C 272.560 173.716,271.570 172.939,270.800 172.402 C 270.030 171.866,269.159 171.193,268.865 170.907 C 268.571 170.622,267.671 169.897,266.865 169.296 C 266.059 168.696,265.310 168.105,265.200 167.983 C 265.090 167.861,264.370 167.324,263.600 166.789 C 262.830 166.255,261.800 165.422,261.311 164.938 C 260.822 164.454,259.877 163.736,259.211 163.343 C 258.545 162.949,258.000 162.486,258.000 162.314 C 258.000 162.141,257.789 162.000,257.531 162.000 C 257.273 162.000,256.027 161.100,254.763 160.000 C 253.498 158.900,252.284 158.000,252.065 158.000 C 251.846 158.000,251.607 157.858,251.533 157.685 C 251.460 157.512,250.590 156.747,249.600 155.985 C 248.610 155.223,247.710 154.501,247.600 154.381 C 247.490 154.260,246.770 153.726,246.000 153.194 C 245.230 152.661,244.060 151.726,243.400 151.115 C 242.740 150.504,242.063 150.003,241.896 150.002 C 241.729 150.001,241.028 149.460,240.337 148.800 C 239.646 148.140,238.928 147.600,238.741 147.600 C 238.555 147.600,237.637 146.880,236.703 146.000 C 235.769 145.120,234.800 144.400,234.551 144.400 C 234.302 144.400,233.865 144.119,233.581 143.777 C 232.853 142.900,228.467 139.600,228.029 139.600 C 227.830 139.600,227.607 139.458,227.533 139.285 C 227.460 139.112,226.595 138.347,225.611 137.585 C 224.628 136.823,223.278 135.706,222.611 135.102 C 221.945 134.498,221.241 134.003,221.047 134.002 C 220.853 134.001,220.403 133.676,220.047 133.281 C 219.691 132.886,218.770 132.125,218.000 131.590 C 217.230 131.055,216.219 130.253,215.754 129.809 C 215.288 129.364,213.774 128.190,212.388 127.200 C 211.002 126.210,209.672 125.214,209.434 124.987 C 209.195 124.760,208.370 124.136,207.600 123.600 C 206.830 123.064,205.959 122.393,205.665 122.107 C 203.156 119.670,201.381 118.993,199.900 119.907 " stroke="none" fill="#fc6c23" fill-rule="evenodd"></path><path id="path1" d="M145.200 97.608 C 144.210 97.791,142.185 97.954,140.700 97.970 C 139.186 97.987,138.000 98.176,138.000 98.400 C 138.000 98.620,137.280 98.800,136.400 98.800 C 135.520 98.800,134.800 98.980,134.800 99.200 C 134.800 99.420,134.451 99.600,134.024 99.600 C 133.597 99.600,133.136 99.780,133.000 100.000 C 132.864 100.220,132.313 100.400,131.776 100.400 C 131.239 100.400,130.800 100.580,130.800 100.800 C 130.800 101.020,130.440 101.200,130.000 101.200 C 129.560 101.200,129.200 101.380,129.200 101.600 C 129.200 101.820,128.840 102.000,128.400 102.000 C 127.960 102.000,127.600 102.180,127.600 102.400 C 127.600 102.620,127.280 102.800,126.888 102.800 C 126.497 102.800,125.917 103.160,125.600 103.600 C 125.283 104.040,124.791 104.400,124.508 104.400 C 124.225 104.400,123.428 104.940,122.737 105.600 C 122.046 106.260,121.325 106.800,121.134 106.800 C 120.643 106.800,114.800 112.701,114.800 113.197 C 114.800 113.423,114.260 114.172,113.600 114.863 C 112.940 115.554,112.400 116.362,112.400 116.659 C 112.400 116.957,112.220 117.200,112.000 117.200 C 111.780 117.200,111.600 117.560,111.600 118.000 C 111.600 118.440,111.420 118.800,111.200 118.800 C 110.980 118.800,110.800 119.160,110.800 119.600 C 110.800 120.040,110.620 120.400,110.400 120.400 C 110.180 120.400,110.000 120.760,110.000 121.200 C 110.000 121.640,109.820 122.000,109.600 122.000 C 109.380 122.000,109.200 122.362,109.200 122.805 C 109.200 123.248,108.992 124.013,108.738 124.505 C 107.715 126.484,107.600 126.836,107.600 127.995 C 107.600 128.658,107.420 129.200,107.200 129.200 C 106.978 129.200,106.800 130.259,106.800 131.576 C 106.800 132.883,106.620 134.064,106.400 134.200 C 106.171 134.341,106.000 136.396,106.000 139.000 C 106.000 141.604,106.171 143.659,106.400 143.800 C 106.620 143.936,106.800 145.106,106.800 146.400 C 106.800 147.694,106.980 148.864,107.200 149.000 C 107.420 149.136,107.600 149.777,107.600 150.424 C 107.600 151.071,107.780 151.600,108.000 151.600 C 108.220 151.600,108.400 152.129,108.400 152.776 C 108.400 153.423,108.580 154.064,108.800 154.200 C 109.020 154.336,109.200 154.887,109.200 155.424 C 109.200 155.961,109.380 156.400,109.600 156.400 C 109.820 156.400,110.000 156.760,110.000 157.200 C 110.000 157.640,110.180 158.000,110.400 158.000 C 110.620 158.000,110.800 158.360,110.800 158.800 C 110.800 159.240,110.980 159.600,111.200 159.600 C 111.420 159.600,111.600 159.836,111.600 160.125 C 111.600 160.413,111.960 161.036,112.400 161.508 C 112.840 161.980,113.200 162.572,113.200 162.823 C 113.200 163.074,113.740 163.783,114.400 164.400 C 115.060 165.017,115.600 165.674,115.600 165.860 C 115.602 166.907,117.570 168.400,118.947 168.400 C 119.746 168.400,120.400 168.250,120.400 168.068 C 120.400 167.885,120.892 167.480,121.493 167.168 C 122.094 166.855,123.111 166.105,123.752 165.500 C 124.394 164.895,125.090 164.400,125.299 164.400 C 125.508 164.400,126.183 163.860,126.800 163.200 C 127.417 162.540,128.169 162.000,128.472 162.000 C 128.775 162.000,129.283 161.640,129.600 161.200 C 129.917 160.760,130.380 160.400,130.629 160.400 C 130.878 160.400,131.646 159.860,132.337 159.200 C 133.028 158.540,133.748 158.000,133.937 158.000 C 134.126 158.000,134.846 157.460,135.537 156.800 C 136.228 156.140,136.948 155.600,137.137 155.600 C 137.326 155.600,138.046 155.060,138.737 154.400 C 139.428 153.740,140.148 153.200,140.337 153.200 C 140.526 153.200,141.246 152.660,141.937 152.000 C 142.628 151.340,143.353 150.800,143.548 150.800 C 143.744 150.800,144.645 150.080,145.552 149.200 C 146.459 148.320,147.431 147.600,147.712 147.600 C 147.993 147.600,148.483 147.240,148.800 146.800 C 149.117 146.360,149.580 146.000,149.829 146.000 C 150.078 146.000,150.846 145.460,151.537 144.800 C 152.228 144.140,152.948 143.600,153.137 143.600 C 153.326 143.600,154.046 143.060,154.737 142.400 C 155.428 141.740,156.148 141.200,156.337 141.200 C 156.526 141.200,157.246 140.660,157.937 140.000 C 158.628 139.340,159.348 138.800,159.537 138.800 C 159.726 138.800,160.446 138.260,161.137 137.600 C 161.828 136.940,162.548 136.400,162.737 136.400 C 162.926 136.400,163.646 135.860,164.337 135.200 C 165.028 134.540,165.753 134.000,165.948 134.000 C 166.144 134.000,167.045 133.280,167.952 132.400 C 168.859 131.520,169.831 130.800,170.112 130.800 C 170.393 130.800,170.883 130.440,171.200 130.000 C 171.517 129.560,171.980 129.200,172.229 129.200 C 172.478 129.200,173.246 128.660,173.937 128.000 C 174.628 127.340,175.348 126.800,175.537 126.800 C 175.726 126.800,176.446 126.260,177.137 125.600 C 177.828 124.940,178.548 124.400,178.737 124.400 C 178.926 124.400,179.646 123.860,180.337 123.200 C 181.028 122.540,181.729 122.000,181.896 122.000 C 182.063 121.999,182.695 121.573,183.300 121.053 C 184.378 120.125,184.790 118.800,184.000 118.800 C 183.780 118.800,183.600 118.440,183.600 118.000 C 183.600 117.560,183.420 117.200,183.200 117.200 C 182.980 117.200,182.800 116.928,182.800 116.596 C 182.800 116.264,182.260 115.428,181.600 114.737 C 180.940 114.046,180.400 113.325,180.400 113.135 C 180.400 112.644,173.697 106.000,173.202 106.000 C 172.977 106.000,172.228 105.460,171.537 104.800 C 170.846 104.140,170.038 103.600,169.741 103.600 C 169.443 103.600,169.200 103.420,169.200 103.200 C 169.200 102.980,168.840 102.800,168.400 102.800 C 167.960 102.800,167.600 102.620,167.600 102.400 C 167.600 102.180,167.240 102.000,166.800 102.000 C 166.360 102.000,166.000 101.820,166.000 101.600 C 166.000 101.380,165.640 101.200,165.200 101.200 C 164.760 101.200,164.400 101.020,164.400 100.800 C 164.400 100.580,164.040 100.400,163.600 100.400 C 163.160 100.400,162.800 100.220,162.800 100.000 C 162.800 99.780,162.080 99.600,161.200 99.600 C 160.320 99.600,159.600 99.420,159.600 99.200 C 159.600 98.980,159.060 98.800,158.400 98.800 C 157.740 98.800,157.200 98.644,157.200 98.452 C 157.200 98.261,155.355 97.999,153.100 97.870 C 150.845 97.741,148.550 97.554,148.000 97.455 C 147.450 97.356,146.190 97.425,145.200 97.608 M276.400 213.000 C 276.674 213.330,277.191 213.579,277.549 213.554 C 278.098 213.514,278.091 213.479,277.500 213.324 C 277.115 213.224,276.800 212.975,276.800 212.771 C 276.800 212.567,276.598 212.400,276.351 212.400 C 276.041 212.400,276.056 212.585,276.400 213.000 M175.600 262.800 L 175.600 302.800 199.600 302.800 L 223.600 302.800 223.600 262.800 L 223.600 222.800 199.600 222.800 L 175.600 222.800 175.600 262.800 M121.100 303.099 C 124.895 303.165,131.105 303.165,134.900 303.099 C 138.695 303.034,135.590 302.980,128.000 302.980 C 120.410 302.980,117.305 303.034,121.100 303.099 M144.500 303.096 C 145.765 303.175,147.835 303.175,149.100 303.096 C 150.365 303.016,149.330 302.951,146.800 302.951 C 144.270 302.951,143.235 303.016,144.500 303.096 M251.900 303.098 C 254.155 303.170,257.845 303.170,260.100 303.098 C 262.355 303.027,260.510 302.969,256.000 302.969 C 251.490 302.969,249.645 303.027,251.900 303.098 M266.300 303.093 C 267.235 303.177,268.765 303.177,269.700 303.093 C 270.635 303.009,269.870 302.940,268.000 302.940 C 266.130 302.940,265.365 303.009,266.300 303.093 M274.500 303.097 C 275.985 303.174,278.415 303.174,279.900 303.097 C 281.385 303.020,280.170 302.957,277.200 302.957 C 274.230 302.957,273.015 303.020,274.500 303.097 " stroke="none" fill="#444444" fill-rule="evenodd"></path><path id="path2" d="" stroke="none" fill="#1005830" fill-rule="evenodd"></path><path id="path3" d="" stroke="none" fill="#1005830" fill-rule="evenodd"></path><path id="path4" d="" stroke="none" fill="#1005830" fill-rule="evenodd"></path></g></svg>